<!-- Generated by IcoMoon.io -->
<svg version="1.1" xmlns="http://www.w3.org/2000/svg" width="77" height="64" viewBox="0 0 77 64">
<title></title>
<g id="icomoon-ignore">
</g>
<path fill="#f6f6f7" d="M70.754 34.394v-5.921h-41.448v32.567c0 1.635 1.326 2.961 2.961 2.961h39.968c2.453 0 4.441-1.988 4.441-4.441v-25.165zM67.793 61.039h-35.527v-29.606h35.527zM35.226 37.355h29.606v2.961h-29.606zM52.99 43.276h11.842v2.961h-11.842zM52.99 49.197h11.842v2.961h-11.842zM52.99 55.118h8.882v2.961h-8.882zM35.226 43.276h14.803v14.803h-14.803z"></path>
<path fill="#f6f6f7" d="M21.792 19.834l6.227 3.595 1.313-2.274-6.227-3.595zM28.71 26.010c-0.285 0.076-0.58 0.048-0.835-0.1l-27.33-15.779c-0.255-0.147-0.427-0.388-0.504-0.673s-0.048-0.58 0.1-0.835l2.429-4.208c0.147-0.255 0.388-0.428 0.673-0.504s0.58-0.048 0.835 0.1l27.33 15.779c0.255 0.147 0.427 0.388 0.504 0.673s0.048 0.58-0.1 0.835l-2.429 4.208c-0.147 0.255-0.388 0.427-0.673 0.504zM25.827 2.513l-0.063 1.777-0.943-1.508-1.777-0.063 1.508-0.943 0.063-1.777 0.943 1.508 1.777 0.063zM24.684 9.107l-0.125 3.555-1.886-3.016-3.555-0.126 3.016-1.886 0.125-3.555 1.886 3.016 3.555 0.125zM20.849 26.842l-0.063 1.777-0.943-1.508-1.777-0.063 1.508-0.943 0.063-1.777 0.943 1.508 1.777 0.063zM28.702 13.24l-0.063 1.777-0.943-1.508-1.777-0.063 1.508-0.943 0.063-1.777 0.943 1.508 1.777 0.063z"></path>
<path fill="#f6f6f7" d="M42.051 28.24l-0.601-4.058-4.057-0.601 4.057-0.601 0.601-4.058 0.601 4.058 4.057 0.601-4.057 0.601z"></path>
<path fill="#f6f6f7" d="M23.458 47.006l-0.601-4.057-4.058-0.601 4.058-0.601 0.601-4.057 0.601 4.057 4.058 0.601-4.058 0.601z"></path>
</svg>
